{"title":"Turtle Power The Definitive History of the Teenage Mutant Ninja ","uid":10774412,"size":1175475179,"categoryP":"video","categoryS":"movies","magnet":"?xt=urn:btih:8dd2d040187233b002efa8fc69de3ad72aeb54ce&amp;dn=Turtle+Power+The+Definitive+History+of+the+Teenage+Mutant+Ninja+&amp;tr=udp%3A%2F%2Ftracker.openbittorrent.com%3A80&amp;tr=udp%3A%2F%2Fopen.demonii.com%3A1337&amp;tr=udp%3A%2F%2Ftracker.coppersurfer.tk%3A6969&amp;tr=udp%3A%2F%2Fexodus.desync.com%3A6969","seeders":3,"leechers":1,"uploader":"ali1997a","files":4,"time":1408109524,"description":"SilverTorrent - Clean And Verified Torrents Download\n &lt;a href=&quot;\nhttp://i.imgur.com/ky6BGho.png&quot; rel=&quot;nofollow&quot; target=&quot;_NEW&quot;&gt;\nhttp://i.imgur.com/ky6BGho.png&lt;/a&gt;\n &lt;a href=&quot;\nhttp://i.imgur.com/SfqzU4h.jpg&quot; rel=&quot;nofollow&quot; target=&quot;_NEW&quot;&gt;\nhttp://i.imgur.com/SfqzU4h.jpg&lt;/a&gt;\n\nTurtle Power The Definitive History of the Teenage Mutant Ninja Turtles 2014 DVDRip x264 AC3-MiLLENiUM\n\niMDB: http://www.imdb.com/title/tt3817848/\nGeneral\nComplete name: Turtle Power The Definitive History of the Teenage Mutant Ninja Turtles 2014 DVDRip x264 AC3-MiLLENiUM.mkv\nFormat: Matroska\nFormat version: Version 2\nFile size: 1.07 GiB\nDuration: 1h 39mn\nOverall bit rate mode: Variable\nOverall bit rate: 1 539 Kbps\nEncoded date: UTC 2014-08-15 08:36:27\nWriting application: mkvmerge v7.1.0 ('Good Love') 32bit built on Jul 27 2014 12:59:18\nWriting library: libebml v1.3.0 + libmatroska v1.4.1\n\nVideo\nID: 1\nFormat: AVC\nFormat/Info: Advanced Video Codec\nFormat profile: &lt;a class=&quot;__cf_email__&quot; href=&quot;/cdn-cgi/l/email-protection&quot; data-cfemail=&quot;a7efcec0cfe7eb938996&quot;&gt;[email&amp;#160;protected]&lt;/a&gt;&lt;script cf-hash='f9e31' type=&quot;text/javascript&quot;&gt;\n/* &lt;![CDATA[ */!function(){try{var t=&quot;currentScript&quot;in document?document.currentScript:function(){for(var t=document.getElementsByTagName(&quot;script&quot;),e=t.length;e--;)if(t[e].getAttribute(&quot;cf-hash&quot;))return t[e]}();if(t&amp;&amp;t.previousSibling){var e,r,n,i,c=t.previousSibling,a=c.getAttribute(&quot;data-cfemail&quot;);if(a){for(e=&quot;&quot;,r=parseInt(a.substr(0,2),16),n=2;a.length-n;n+=2)i=parseInt(a.substr(n,2),16)^r,e+=String.fromCharCode(i);e=document.createTextNode(e),c.parentNode.replaceChild(e,c)}}}catch(u){}}();/* ]]&gt; */&lt;/script&gt;\nFormat settings, CABAC: Yes\nFormat settings, ReFrames: 3 frames\nCodec ID: V_MPEG4/ISO/AVC\nDuration: 1h 39mn\nBit rate mode: Variable\nBit rate: 1 060 Kbps\nMaximum bit rate: 40.0 Mbps\nWidth: 720 pixels\nHeight: 400 pixels\nDisplay aspect ratio: 16:9\nFrame rate mode: Constant\nFrame rate: 23.976 fps\nColor space: YUV\nChroma subsampling: 4:2:0\nBit depth: 8 bits\nScan type: Progressive\nBits/(Pixel*Frame): 0.154\nStream size: 752 MiB (69%)\nWriting library: x264 core 142 r2453 ea0ca51\n\nAudio\nID: 2\nFormat: AC-3\nFormat/Info: Audio Coding 3\nMode extension: CM (complete main)\nFormat settings, Endianness: Big\nCodec ID: A_AC3\nDuration: 1h 39mn\nBit rate mode: Constant\nBit rate: 448 Kbps\nChannel(s): 6 channels\nChannel positions: Front: L C R, Side: L R, LFE\nSampling rate: 48.0 KHz\nBit depth: 16 bits\nCompression mode: Lossy\nStream size: 318 MiB (29%)\nLanguage: English\nDefault: Yes\nForced: No \n\n\nSCREENS:\n &lt;a href=&quot;\nhttp://i.imgur.com/jFEgbfU.png&quot; rel=&quot;nofollow&quot; target=&quot;_NEW&quot;&gt;\nhttp://i.imgur.com/jFEgbfU.png&lt;/a&gt;\n &lt;a href=&quot;\nhttp://i.imgur.com/vJTETGy.png&quot; rel=&quot;nofollow&quot; target=&quot;_NEW&quot;&gt;\nhttp://i.imgur.com/vJTETGy.png&lt;/a&gt;\n &lt;a href=&quot;\nhttp://i.imgur.com/TufiWfB.png&quot; rel=&quot;nofollow&quot; target=&quot;_NEW&quot;&gt;\nhttp://i.imgur.com/TufiWfB.png&lt;/a&gt;\n &lt;a href=&quot;\nhttp://i.imgur.com/ZAp00UU.png&quot; rel=&quot;nofollow&quot; target=&quot;_NEW&quot;&gt;\nhttp://i.imgur.com/ZAp00UU.png&lt;/a&gt;","torrent":{"xt":"urn:btih:8dd2d040187233b002efa8fc69de3ad72aeb54ce","amp;dn":"Turtle+Power+The+Definitive+History+of+the+Teenage+Mutant+Ninja+","amp;tr":["udp%3A%2F%2Ftracker.openbittorrent.com%3A80","udp%3A%2F%2Fopen.demonii.com%3A1337","udp%3A%2F%2Ftracker.coppersurfer.tk%3A6969","udp%3A%2F%2Fexodus.desync.com%3A6969"],"infoHash":"8dd2d040187233b002efa8fc69de3ad72aeb54ce","infoHashBuffer":{"type":"Buffer","data":[141,210,208,64,24,114,51,176,2,239,168,252,105,222,58,215,42,235,84,206]},"announce":[],"urlList":[]}}